<svg xmlns="http://www.w3.org/2000/svg" data-v-1084b650="" width="239.6028372487952" height="51.58156025010952" style=""><rect id="backgroundrect" width="100%" height="100%" x="0" y="0" fill="none" stroke="none" class="" style=""/><!----> <!---->  <!---->  <!----> <g class="currentLayer" style=""><title>Layer 1</title><rect data-v-1084b650="" fill="#156EAC" x="271.6312255859375" y="208.95277404785156" width="243.97161865234375" height="61.26000213623047" class="logo-background-square" id="svg_1" opacity="0"/><g data-v-1084b650="" id="c910f2eb-c293-2f4e-302d-7600084cf44b" fill="#ffffff" class="" fill-opacity="1"><path d="M66.39133606100083,38.364954000473034 C72.66333606100083,38.364954000473034 76.30333606100083,34.94895400047304 76.30333606100083,29.852954000473034 C76.30333606100083,25.51295400047303 73.83933606100084,23.076954000473023 68.37933606100083,22.01295400047303 L65.97133606100084,21.50895400047301 C63.03133606100084,20.920954000473017 61.60333606100083,19.940954000473027 61.60333606100083,17.672954000473027 C61.60333606100083,15.26495400047304 63.42333606100084,13.976954000473029 66.55933606100083,13.976954000473029 C69.55533606100083,13.976954000473029 71.51533606100084,15.152954000473017 72.94333606100084,17.00095400047303 L76.02333606100083,14.25695400047303 C73.92333606100084,11.540954000473022 70.89933606100084,10.056954000473013 66.78333606100084,10.056954000473013 C60.98733606100083,10.056954000473013 57.20733606100083,13.02495400047303 57.20733606100083,17.896954000473016 C57.20733606100083,22.23695400047302 59.92333606100084,24.72895400047304 65.21533606100084,25.708954000473028 L67.65133606100083,26.128954000473016 C70.81533606100083,26.74495400047303 71.90733606100083,27.97695400047303 71.90733606100083,30.076954000473023 C71.90733606100083,32.70895400047303 70.11533606100083,34.44495400047302 66.61533606100083,34.44495400047302 C63.64733606100083,34.44495400047302 61.37933606100083,33.21295400047302 59.44733606100084,30.860954000473043 L56.39533606100083,33.74495400047303 C58.663336061000834,36.54495400047301 61.79933606100083,38.364954000473034 66.39133606100083,38.364954000473034 zM93.66333606100085,37.888954000473035 L97.94733606100084,37.888954000473035 L97.94733606100084,17.50495400047302 L93.66333606100085,17.50495400047302 L93.66333606100085,31.140954000473016 C93.66333606100085,33.54895400047303 91.50733606100084,34.668954000473036 89.32333606100082,34.668954000473036 C86.69133606100084,34.668954000473036 85.40333606100083,33.01695400047302 85.40333606100083,29.93695400047301 L85.40333606100083,17.50495400047302 L81.11933606100084,17.50495400047302 L81.11933606100084,30.46895400047302 C81.11933606100084,35.50895400047301 83.61133606100083,38.364954000473034 87.78333606100082,38.364954000473034 C91.17133606100083,38.364954000473034 92.76733606100083,36.51695400047302 93.52333606100083,34.52895400047302 L93.66333606100085,34.52895400047302 zM108.33533606100082,37.888954000473035 L108.33533606100082,24.868954000473025 C108.33533606100082,22.76895400047303 110.21133606100085,21.620954000473034 113.59933606100083,21.620954000473034 L115.27933606100083,21.620954000473034 L115.27933606100083,17.50495400047302 L114.13133606100084,17.50495400047302 C110.88333606100082,17.50495400047302 109.11933606100084,19.352954000473034 108.53133606100084,21.424954000473036 L108.33533606100082,21.424954000473036 L108.33533606100082,17.50495400047302 L104.05133606100082,17.50495400047302 L104.05133606100082,37.888954000473035 zM119.08733606100083,45.72895400047304 L123.34333606100083,45.72895400047304 L123.34333606100083,34.52895400047302 L123.53933606100082,34.52895400047302 C124.40733606100082,36.90895400047302 126.56333606100083,38.364954000473034 129.27933606100083,38.364954000473034 C134.40333606100083,38.364954000473034 137.37133606100082,34.388954000473035 137.37133606100082,27.696954000473028 C137.37133606100082,21.00495400047302 134.40333606100083,17.02895400047302 129.27933606100083,17.02895400047302 C126.56333606100083,17.02895400047302 124.40733606100082,18.45695400047302 123.53933606100082,20.864954000473034 L123.34333606100083,20.864954000473034 L123.34333606100083,17.50495400047302 L119.08733606100083,17.50495400047302 zM127.96333606100083,34.668954000473036 C125.38733606100084,34.668954000473036 123.34333606100083,33.26895400047303 123.34333606100083,31.196954000473028 L123.34333606100083,24.196954000473028 C123.34333606100083,22.124954000473025 125.38733606100084,20.72495400047302 127.96333606100083,20.72495400047302 C130.90333606100083,20.72495400047302 132.86333606100084,22.796954000473022 132.86333606100084,25.932954000473018 L132.86333606100084,29.460954000473038 C132.86333606100084,32.59695400047303 130.90333606100083,34.668954000473036 127.96333606100083,34.668954000473036 zM142.27133606100085,37.888954000473035 L146.55533606100084,37.888954000473035 L146.55533606100084,24.196954000473028 C146.55533606100084,21.844954000473024 148.7393360610008,20.72495400047302 150.97933606100082,20.72495400047302 C153.61133606100083,20.72495400047302 154.81533606100083,22.320954000473023 154.81533606100083,25.45695400047302 L154.81533606100083,37.888954000473035 L159.09933606100083,37.888954000473035 L159.09933606100083,24.952954000473028 C159.09933606100083,19.940954000473027 156.63533606100083,17.02895400047302 152.4633360610008,17.02895400047302 C149.32733606100084,17.02895400047302 147.61933606100084,18.680954000473037 146.7513360610008,20.864954000473034 L146.55533606100084,20.864954000473034 L146.55533606100084,8.880954000473025 L142.27133606100085,8.880954000473025 zM182.33933606100084,37.888954000473035 L182.33933606100084,34.388954000473035 L180.18333606100083,34.388954000473035 L180.18333606100083,24.168954000473036 C180.18333606100083,19.632954000473035 177.24333606100083,17.02895400047302 172.00733606100084,17.02895400047302 C168.03133606100084,17.02895400047302 165.65133606100082,18.708954000473028 164.30733606100085,21.00495400047302 L166.85533606100083,23.30095400047304 C167.89133606100083,21.704954000473037 169.31933606100083,20.52895400047302 171.7273360610008,20.52895400047302 C174.58333606100084,20.52895400047302 175.92733606100083,21.98495400047304 175.92733606100083,24.448954000473037 L175.92733606100083,26.156954000473036 L172.23133606100083,26.156954000473036 C166.5473360610008,26.156954000473036 163.52333606100083,28.25695400047303 163.52333606100083,32.28895400047304 C163.52333606100083,35.95695400047302 165.93133606100082,38.364954000473034 170.10333606100085,38.364954000473034 C173.09933606100083,38.364954000473034 175.28333606100085,37.02095400047301 176.06733606100082,34.47295400047304 L176.2633360610008,34.47295400047304 C176.54333606100084,36.48895400047303 177.71933606100083,37.888954000473035 179.95933606100084,37.888954000473035 zM171.33533606100082,35.116954000473015 C169.20733606100083,35.116954000473015 167.89133606100083,34.16495400047302 167.89133606100083,32.372954000473044 L167.89133606100083,31.644954000473035 C167.89133606100083,29.880954000473025 169.31933606100083,28.900954000473035 172.31533606100083,28.900954000473035 L175.92733606100083,28.900954000473035 L175.92733606100083,31.840954000473033 C175.92733606100083,33.856954000473024 173.96733606100082,35.116954000473015 171.33533606100082,35.116954000473015 zM201.1553360610008,37.888954000473035 L201.1553360610008,34.388954000473035 L189.78733606100084,34.388954000473035 L200.8753360610008,20.808954000473022 L200.8753360610008,17.50495400047302 L185.2513360610008,17.50495400047302 L185.2513360610008,21.00495400047302 L195.83533606100082,21.00495400047302 L184.88733606100084,34.44495400047302 L184.88733606100084,37.888954000473035 zM213.19533606100083,38.364954000473034 C217.00333606100082,38.364954000473034 219.97133606100078,36.71295400047302 221.51133606100086,34.24895400047302 L218.99133606100082,31.78495400047302 C217.81533606100083,33.660954000473026 216.13533606100083,34.83695400047304 213.6153360610008,34.83695400047304 C210.17133606100083,34.83695400047304 208.26733606100083,32.59695400047303 208.26733606100083,29.460954000473038 L208.26733606100083,28.78895400047304 L222.2393360610008,28.78895400047304 L222.2393360610008,27.192954000473037 C222.2393360610008,21.53695400047303 219.1873360610008,17.02895400047302 213.19533606100083,17.02895400047302 C207.39933606100084,17.02895400047302 203.81533606100083,21.20095400047302 203.81533606100083,27.696954000473028 C203.81533606100083,34.19295400047304 207.39933606100084,38.364954000473034 213.19533606100083,38.364954000473034 zM213.19533606100083,20.360954000473015 C216.0233360610008,20.360954000473015 217.73133606100083,22.43295400047302 217.73133606100083,25.568954000473013 L217.73133606100083,25.960954000473038 L208.26733606100083,25.960954000473038 L208.26733606100083,25.708954000473028 C208.26733606100083,22.572954000473032 210.25533606100083,20.360954000473015 213.19533606100083,20.360954000473015 z" stroke-width="0" id="svg_2" fill="#ffffff" fill-opacity="1"/></g><g data-v-1084b650="" id="543ddf87-b1a6-f5a3-d8fa-7d8158e6d611" stroke="#F6575E" fill="none" transform="matrix(0.8697304547226399,0,0,0.8055449979617896,-4.232777499440063,344.10961820992065) " class="" opacity="1"><svg xmlns="http://www.w3.org/2000/svg" viewBox="0 0 100 100" id="svg_3" x="-81.19435115137283" y="-423.12520023345803"><g stroke-width="6" stroke-linecap="round" stroke-linejoin="round" stroke-miterlimit="10" id="svg_4" opacity="1"><path d="M50.327 88.302L15 70.746V30.137l35.327 17.556L85 29.254v40.609z" id="svg_7" opacity="1"/><path d="M50.327 47.693L15 30.137l35-18.439 35 17.556z" id="svg_6" opacity="1"/><path d="M85 44.535l-5.938 4.781h-5.937l-6.001 6.804-5.078-2.366-5.61 8.049h-6.109l-6.008-3.678-5.158 1.6-5.259-6.556-5.735.872-4.374-6.604-4.211 3.813L15 45.417M50.327 88.302V47.693" id="svg_5" opacity="1"/></g></svg></g></g></svg>