<svg xmlns="http://www.w3.org/2000/svg" data-v-1084b650="" viewBox="0 0 300 100"><!----> <!----> <rect data-v-1084b650="" fill="none" x="0" y="0" width="300px" height="100px" class="logo-background-square"/> <!----> <g data-v-1084b650="" id="c910f2eb-c293-2f4e-302d-7600084cf44b" fill="#ffffff" transform="matrix(2.8,0,0,2.8,80.76350687742234,20.40399279594422)"><path d="M4.13 14.52C6.37 14.52 7.67 13.30 7.67 11.48C7.67 9.93 6.79 9.06 4.84 8.68L3.98 8.50C2.93 8.29 2.42 7.94 2.42 7.13C2.42 6.27 3.07 5.81 4.19 5.81C5.26 5.81 5.96 6.23 6.47 6.89L7.57 5.91C6.82 4.94 5.74 4.41 4.27 4.41C2.20 4.41 0.85 5.47 0.85 7.21C0.85 8.76 1.82 9.65 3.71 10.00L4.58 10.15C5.71 10.37 6.10 10.81 6.10 11.56C6.10 12.50 5.46 13.12 4.21 13.12C3.15 13.12 2.34 12.68 1.65 11.84L0.56 12.87C1.37 13.87 2.49 14.52 4.13 14.52ZM13.87 14.35L15.40 14.35L15.40 7.07L13.87 7.07L13.87 11.94C13.87 12.80 13.10 13.20 12.32 13.20C11.38 13.20 10.92 12.61 10.92 11.51L10.92 7.07L9.39 7.07L9.39 11.70C9.39 13.50 10.28 14.52 11.77 14.52C12.98 14.52 13.55 13.86 13.82 13.15L13.87 13.15ZM19.11 14.35L19.11 9.70C19.11 8.95 19.78 8.54 20.99 8.54L21.59 8.54L21.59 7.07L21.18 7.07C20.02 7.07 19.39 7.73 19.18 8.47L19.11 8.47L19.11 7.07L17.58 7.07L17.58 14.35ZM22.95 17.15L24.47 17.15L24.47 13.15L24.54 13.15C24.85 14 25.62 14.52 26.59 14.52C28.42 14.52 29.48 13.10 29.48 10.71C29.48 8.32 28.42 6.90 26.59 6.90C25.62 6.90 24.85 7.41 24.54 8.27L24.47 8.27L24.47 7.07L22.95 7.07ZM26.12 13.20C25.20 13.20 24.47 12.70 24.47 11.96L24.47 9.46C24.47 8.72 25.20 8.22 26.12 8.22C27.17 8.22 27.87 8.96 27.87 10.08L27.87 11.34C27.87 12.46 27.17 13.20 26.12 13.20ZM31.23 14.35L32.76 14.35L32.76 9.46C32.76 8.62 33.54 8.22 34.34 8.22C35.28 8.22 35.71 8.79 35.71 9.91L35.71 14.35L37.24 14.35L37.24 9.73C37.24 7.94 36.36 6.90 34.87 6.90C33.75 6.90 33.14 7.49 32.83 8.27L32.76 8.27L32.76 3.99L31.23 3.99ZM45.54 14.35L45.54 13.10L44.77 13.10L44.77 9.45C44.77 7.83 43.72 6.90 41.85 6.90C40.43 6.90 39.58 7.50 39.10 8.32L40.01 9.14C40.38 8.57 40.89 8.15 41.75 8.15C42.77 8.15 43.25 8.67 43.25 9.55L43.25 10.16L41.93 10.16C39.90 10.16 38.82 10.91 38.82 12.35C38.82 13.66 39.68 14.52 41.17 14.52C42.24 14.52 43.02 14.04 43.30 13.13L43.37 13.13C43.47 13.85 43.89 14.35 44.69 14.35ZM41.61 13.36C40.85 13.36 40.38 13.02 40.38 12.38L40.38 12.12C40.38 11.49 40.89 11.14 41.96 11.14L43.25 11.14L43.25 12.19C43.25 12.91 42.55 13.36 41.61 13.36ZM52.26 14.35L52.26 13.10L48.20 13.10L52.16 8.25L52.16 7.07L46.58 7.07L46.58 8.32L50.36 8.32L46.45 13.12L46.45 14.35ZM56.56 14.52C57.92 14.52 58.98 13.93 59.53 13.05L58.63 12.17C58.21 12.84 57.61 13.26 56.71 13.26C55.48 13.26 54.80 12.46 54.80 11.34L54.80 11.10L59.79 11.10L59.79 10.53C59.79 8.51 58.70 6.90 56.56 6.90C54.49 6.90 53.21 8.39 53.21 10.71C53.21 13.03 54.49 14.52 56.56 14.52ZM56.56 8.09C57.57 8.09 58.18 8.83 58.18 9.95L58.18 10.09L54.80 10.09L54.80 10.00C54.80 8.88 55.51 8.09 56.56 8.09Z"/></g> <!----> <g data-v-1084b650="" id="543ddf87-b1a6-f5a3-d8fa-7d8158e6d611" stroke="#F6575E" fill="none" transform="matrix(0.24050961890875483,0,0,0.24050961890875483,17.177066685171148,18.923555328744)"><svg xmlns="http://www.w3.org/2000/svg" viewBox="0 0 100 100"><g stroke-width="6" stroke-linecap="round" stroke-linejoin="round" stroke-miterlimit="10"><path d="M50.327 88.302L15 70.746V30.137l35.327 17.556L85 29.254v40.609z"/><path d="M50.327 47.693L15 30.137l35-18.439 35 17.556z"/><path d="M85 44.535l-5.938 4.781h-5.937l-6.001 6.804-5.078-2.366-5.61 8.049h-6.109l-6.008-3.678-5.158 1.6-5.259-6.556-5.735.872-4.374-6.604-4.211 3.813L15 45.417M50.327 88.302V47.693"/></g></svg></g></svg>