<svg xmlns="http://www.w3.org/2000/svg" data-v-1084b650="" width="300" height="300"><rect id="backgroundrect" width="100%" height="100%" x="0" y="0" fill="none" stroke="none"/><!----> <!---->  <!----> <!----> <g class="currentLayer" style=""><title>Layer 1</title><rect data-v-1084b650="" fill="none" x="0" y="0" width="300" height="300" class="logo-background-square selected" id="svg_1" rx="40" ry="40"/><g data-v-1084b650="" id="98b27ced-4cd7-b794-247a-7a83b398b0a9" fill="none" stroke="#F6575E" transform="matrix(0.95,0,0,0.95,7.499999999999972,7.499992752075173) "><svg xmlns="http://www.w3.org/2000/svg" viewBox="0 0 100 100" id="svg_2"><g stroke-width="6" stroke-linecap="round" stroke-linejoin="round" stroke-miterlimit="10" id="svg_3"><path d="M50.327 88.302L15 70.746V30.137l35.327 17.556L85 29.254v40.609z" id="svg_4"/><path d="M50.327 47.693L15 30.137l35-18.439 35 17.556z" id="svg_5"/><path d="M85 44.535l-5.938 4.781h-5.937l-6.001 6.804-5.078-2.366-5.61 8.049h-6.109l-6.008-3.678-5.158 1.6-5.259-6.556-5.735.872-4.374-6.604-4.211 3.813L15 45.417M50.327 88.302V47.693" id="svg_6"/></g></svg></g></g></svg>